# Blender v3.0.1 OBJ File: 'building.blend'
# www.blender.org
mtllib building.mtl
o Cube_Cube.001
v -1.000000 -0.300000 1.000000
v -1.000000 1.200000 1.000000
v -1.000000 -0.300000 -1.000000
v -1.000000 1.200000 -1.000000
v 1.000000 -0.300000 1.000000
v 1.000000 1.200000 1.000000
v 1.000000 -0.300000 -1.000000
v 1.000000 1.200000 -1.000000
v -1.000000 2.200000 0.000000
v 1.000000 2.200000 0.000000
v -1.000000 2.400000 0.000000
v 1.000000 2.400000 0.000000
v 1.000000 1.200000 1.200000
v -1.000000 1.200000 1.200000
v -1.000000 1.200000 -1.200000
v 1.000000 1.200000 -1.200000
v -1.100000 2.200000 0.000000
v -1.100000 1.200000 -1.000000
v 1.100000 2.200000 0.000000
v 1.100000 1.200000 1.000000
v -1.100000 1.200000 1.000000
v -1.100000 1.200000 1.200000
v 1.100000 1.200000 -1.000000
v 1.100000 2.400000 0.000000
v 1.100000 1.200000 -1.200000
v 1.100000 1.200000 1.200000
v -1.100000 2.400000 0.000000
v -1.100000 1.200000 -1.200000
vt 0.375000 0.250000
vt 0.625000 0.250000
vt 0.625000 0.500000
vt 0.375000 0.500000
vt 0.375000 0.750000
vt 0.625000 0.750000
vt 0.625000 1.000000
vt 0.375000 1.000000
vt 0.000000 0.000000
vt 0.000000 0.000000
vt 0.625000 0.500000
vt 0.875000 0.500000
vt 0.000000 0.000000
vt 0.000000 0.000000
vt 0.000000 0.000000
vt 0.625000 0.750000
vt 0.625000 0.750000
vt 0.000000 0.000000
vt 0.625000 0.500000
vt 0.000000 0.000000
vt 0.625000 0.750000
vt 0.625000 0.250000
vt 0.875000 0.500000
vt 0.000000 0.000000
vt 0.000000 0.000000
vt 0.625000 1.000000
vt 0.000000 0.000000
vt 0.625000 0.500000
vn 0.0000 0.0000 -1.0000
vn 0.0000 0.0000 1.0000
vn 0.0000 -1.0000 0.0000
vn 1.0000 0.0000 0.0000
vn -1.0000 0.0000 0.0000
vn 0.0000 0.7071 -0.7071
vn 0.0000 0.7071 0.7071
vn 0.0000 -0.7071 0.7071
vn 0.0000 -0.7071 -0.7071
usemtl Material.001
s off
f 3/1/1 4/2/1 8/3/1 7/4/1
f 5/5/2 6/6/2 2/7/2 1/8/2
f 7/4/3 5/5/3 1/8/3 3/1/3
f 7/4/4 8/3/4 6/6/4 5/5/4
f 10/9/4 6/6/4 8/3/4
f 1/8/5 2/7/5 4/2/5 3/1/5
f 9/10/5 4/2/5 2/7/5
usemtl Material.002
f 16/11/6 15/12/6 11/13/6 12/14/6
f 11/13/7 14/15/7 13/16/7 12/14/7
f 8/3/3 4/2/3 15/12/3 16/11/3
f 2/7/3 6/6/3 13/16/3 14/15/3
f 12/14/7 13/16/7 26/17/7 24/18/7
f 10/9/8 8/3/8 23/19/8 19/20/8
f 6/6/9 10/9/9 19/20/9 20/21/9
f 15/12/3 4/2/3 18/22/3 28/23/3
f 18/22/5 17/24/5 27/25/5 28/23/5
f 21/26/5 22/27/5 27/25/5 17/24/5
f 20/21/4 19/20/4 24/18/4 26/17/4
f 23/19/4 25/28/4 24/18/4 19/20/4
f 2/7/3 14/15/3 22/27/3 21/26/3
f 4/2/8 9/10/8 17/24/8 18/22/8
f 16/11/6 12/14/6 24/18/6 25/28/6
f 14/15/7 11/13/7 27/25/7 22/27/7
f 9/10/9 2/7/9 21/26/9 17/24/9
f 8/3/3 16/11/3 25/28/3 23/19/3
f 13/16/3 6/6/3 20/21/3 26/17/3
f 11/13/6 15/12/6 28/23/6 27/25/6
